<?xml version="1.0" encoding="UTF-8" standalone="no"?>
<!-- Created with Inkscape (http://www.inkscape.org/) -->

<svg
   width="150mm"
   height="150mm"
   viewBox="0 0 150 150"
   version="1.1"
   id="svg1"
   xml:space="preserve"
   inkscape:version="1.4.2 (ebf0e940d0, 2025-05-08)"
   sodipodi:docname="logo.svg"
   xmlns:inkscape="http://www.inkscape.org/namespaces/inkscape"
   xmlns:sodipodi="http://sodipodi.sourceforge.net/DTD/sodipodi-0.dtd"
   xmlns="http://www.w3.org/2000/svg"
   xmlns:svg="http://www.w3.org/2000/svg"><sodipodi:namedview
     id="namedview1"
     pagecolor="#ffffff"
     bordercolor="#000000"
     borderopacity="0.25"
     inkscape:showpageshadow="2"
     inkscape:pageopacity="0.0"
     inkscape:pagecheckerboard="0"
     inkscape:deskcolor="#d1d1d1"
     inkscape:document-units="mm"
     inkscape:zoom="1.4869583"
     inkscape:cx="207.13425"
     inkscape:cy="276.73943"
     inkscape:window-width="1920"
     inkscape:window-height="1052"
     inkscape:window-x="0"
     inkscape:window-y="0"
     inkscape:window-maximized="1"
     inkscape:current-layer="layer1" /><defs
     id="defs1" /><g
     inkscape:label="Layer 1"
     inkscape:groupmode="layer"
     id="layer1"><path
       style="fill:#3f86c9;fill-opacity:1;stroke-width:0.261514"
       d="M 75,0 V 75 H 0 V 30.676438 C 0,30.676438 0.0769917,1.7893974 30.443147,0 74.997553,0.00476785 75,0 75,0 Z"
       id="path1"
       sodipodi:nodetypes="cccccc" /><path
       style="fill:#f17a45;fill-opacity:1;stroke-width:0.261514"
       d="m 0,75 h 75 v 75 H 30.67644 C 30.67644,150 1.789397,149.92301 0,119.55685 0.004768,75.002447 0,75 0,75 Z"
       id="path3"
       sodipodi:nodetypes="cccccc" /><path
       style="fill:#44ac7c;fill-opacity:1;stroke-width:0.261514"
       d="M 150,75 H 75 V 0 h 44.32356 c 0,0 28.88704,0.076992 30.67644,30.44315 C 149.99523,74.99755 150,75 150,75 Z"
       id="path4"
       sodipodi:nodetypes="cccccc" /><path
       style="fill:#fac349;fill-opacity:1;stroke-width:0.261514"
       d="M 75,150 V 75 h 75 v 44.32356 c 0,0 -0.077,28.88704 -30.44315,30.67644 C 75.00245,149.99523 75,150 75,150 Z"
       id="path5"
       sodipodi:nodetypes="cccccc" /><path
       d="m 48.552581,14.116732 -4.930432,4.931405 12.331003,12.333431 4.930433,-4.931405 c 2.15522,-2.155643 2.15522,-5.640108 0,-7.795752 l -4.536786,-4.537679 c -2.155218,-2.155643 -5.638997,-2.155643 -7.794218,0 z m -8.778336,7.766222 -0.04921,0.0098 -14.181147,4.252228 c -1.958393,0.590634 -3.5133,2.086789 -4.162818,4.035726 l -8.719284,26.015367 c -0.285394,0.856354 -0.186982,1.79145 0.24603,2.559214 L 28.201012,43.459077 c -0.108253,-0.393725 -0.157459,-0.797293 -0.157459,-1.220547 0,-2.608426 2.115856,-4.724698 4.723769,-4.724698 2.607914,0 4.723769,2.116272 4.723769,4.724698 0,2.608425 -2.115855,4.724699 -4.723769,4.724699 -0.423171,0 -0.836501,-0.05906 -1.220306,-0.157493 L 16.253815,62.092103 c 0.767613,0.433099 1.692683,0.531529 2.558707,0.246079 l 26.01025,-8.721004 c 1.938712,-0.649646 3.444415,-2.20486 4.034886,-4.163642 L 53.109051,35.2696 53.118951,35.22038 39.784104,21.882952 Z"
       id="path1-7"
       style="stroke-width:0.098422;fill:#ffffff" /><path
       d="m 132.8125,37.499998 c 0,-11.220701 -9.0918,-20.312498 -20.3125,-20.312498 -11.2207,0 -20.3125,9.091797 -20.3125,20.312498 0,11.220705 9.0918,20.312502 20.3125,20.312502 11.2207,0 20.3125,-9.091797 20.3125,-20.312502 z m -45.3125,0 C 87.5,23.691406 98.691408,12.5 112.5,12.5 c 13.80859,0 25,11.191406 25,24.999998 0,13.808596 -11.19141,25.000002 -25,25.000002 -13.808592,0 -25,-11.191406 -25,-25.000002 z m 17.31445,6.191409 c 1.46485,1.523437 4.01367,3.183595 7.68555,3.183595 3.67188,0 6.2207,-1.660158 7.68555,-3.183595 0.89843,-0.9375 2.38281,-0.966799 3.31054,-0.06836 0.92774,0.898439 0.9668,2.382811 0.0684,3.310549 -2.1582,2.246091 -5.85938,4.628906 -11.06446,4.628906 -5.20507,0 -8.90624,-2.382815 -11.06445,-4.628906 -0.89844,-0.9375 -0.86914,-2.421876 0.0684,-3.310549 0.93751,-0.888672 2.42188,-0.86914 3.31056,0.06836 z M 101.5625,32.812498 c 0,-1.728514 1.39648,-3.124998 3.125,-3.124998 1.72852,0 3.125,1.396484 3.125,3.124998 0,1.728517 -1.39648,3.125001 -3.125,3.125001 -1.72852,0 -3.125,-1.396484 -3.125,-3.125001 z m 18.75,-3.124998 c 1.72852,0 3.125,1.396484 3.125,3.124998 0,1.728517 -1.39648,3.125001 -3.125,3.125001 -1.72852,0 -3.125,-1.396484 -3.125,-3.125001 0,-1.728514 1.39648,-3.124998 3.125,-3.124998 z"
       id="path1-6"
       style="stroke-width:0.097656;fill:#ffffff" /><path
       d="m 23.790323,92.96875 c 0,-3.017578 2.530242,-5.46875 5.645162,-5.46875 h 2.419354 c 1.784274,0 3.225807,1.396484 3.225807,3.125 v 43.75 c 0,1.72851 -1.441533,3.125 -3.225807,3.125 h -3.225807 c -3.004032,0 -5.534274,-1.99219 -6.25,-4.68751 -0.07056,0 -0.131048,0 -0.201613,0 -4.455644,0 -8.064516,-3.49609 -8.064516,-7.81249 0,-1.75782 0.604839,-3.37891 1.612904,-4.6875 C 13.770162,118.88671 12.5,116.62109 12.5,114.0625 c 0,-3.01758 1.774194,-5.64453 4.354838,-6.94336 -0.715725,-1.17188 -1.129031,-2.53907 -1.129031,-3.99414 0,-4.31641 3.608871,-7.812501 8.064516,-7.812501 z m 27.419355,0 v 2.343749 c 4.455644,0 8.064518,3.496091 8.064518,7.812501 0,1.46484 -0.41331,2.83203 -1.129035,3.99414 2.590725,1.29883 4.354839,3.91601 4.354839,6.94336 0,2.55859 -1.270162,4.82421 -3.225804,6.25 1.008063,1.30859 1.612902,2.92968 1.612902,4.6875 0,4.3164 -3.60887,7.81249 -8.064517,7.81249 -0.07056,0 -0.131049,0 -0.201611,0 C 51.905241,135.50781 49.375,137.5 46.370968,137.5 h -3.225806 c -1.784274,0 -3.225807,-1.39648 -3.225807,-3.125 v -43.75 c 0,-1.728516 1.441533,-3.125 3.225807,-3.125 h 2.419353 c 3.114922,0 5.645163,2.451172 5.645163,5.46875 z"
       id="path1-61"
       style="stroke-width:0.0992188;fill:#ffffff" /><path
       d="m 128.12699,107.80952 c 0,4.48177 -1.45516,8.62179 -3.90644,11.98067 l 12.36388,12.37124 c 1.22076,1.22052 1.22076,3.20265 0,4.42317 -1.22077,1.22053 -3.20328,1.22053 -4.42404,0 L 119.7965,124.21337 c -3.35954,2.45081 -7.50036,3.90568 -11.98301,3.90568 C 96.592241,128.11905 87.5,119.02858 87.5,107.80952 87.5,96.590464 96.592241,87.5 107.81349,87.5 c 11.22125,0 20.3135,9.090464 20.3135,20.30952 z m -20.3135,14.06045 c 7.76406,0 14.0632,-6.29791 14.0632,-14.06045 0,-7.76253 -6.29914,-14.060436 -14.0632,-14.060436 -7.76405,0 -14.063185,6.297906 -14.063185,14.060436 0,7.76254 6.299135,14.06045 14.063185,14.06045 z"
       id="path1-2"
       style="stroke-width:0.0976512;fill:#ffffff" /></g></svg>
